<svg width="2000" height="1000" viewBox="0 0 2000 1000" fill="none" xmlns="http://www.w3.org/2000/svg">
<rect x="1111" y="444" width="111" height="112" fill="white"/>
<rect x="1222" y="444" width="111" height="112" fill="white"/>
<rect x="111" y="444" width="111" height="112" fill="white"/>
<rect x="1333" y="111" width="111" height="111" fill="white"/>
<rect x="1333" y="444" width="111" height="112" fill="white"/>
<rect x="222" y="444" width="111" height="112" fill="white"/>
<rect x="1333" y="778" width="111" height="111" fill="white"/>
<rect x="1444" y="222" width="112" height="111" fill="white"/>
<rect x="1555" y="333" width="112" height="111" fill="white"/>
<rect x="1444" y="444" width="112" height="112" fill="white"/>
<rect x="333" y="444" width="111" height="112" fill="white"/>
<rect x="1444" y="667" width="112" height="111" fill="white"/>
<rect x="444" y="444" width="112" height="112" fill="white"/>
<rect x="1556" y="556" width="111" height="111" fill="white"/>
<rect x="1667" y="444" width="111" height="112" fill="white"/>
<rect x="556" y="444" width="111" height="112" fill="white"/>
<rect x="667" y="444" width="111" height="112" fill="white"/>
<rect x="778" y="444" width="111" height="112" fill="white"/>
<rect x="889" y="444" width="111" height="112" fill="white"/>
<rect x="1000" y="444" width="111" height="112" fill="white"/>
</svg>
