<svg width="1000" height="1000" viewBox="0 0 1000 1000" fill="none" xmlns="http://www.w3.org/2000/svg">
<g clip-path="url(#clip0_0_1)">
<rect x="200" y="200" width="100" height="100" fill="white"/>
<rect x="200" y="400" width="100" height="100" fill="white"/>
<rect x="200" y="500" width="100" height="100" fill="white"/>
<rect x="200" y="600" width="100" height="100" fill="white"/>
<rect x="200" y="700" width="100" height="100" fill="white"/>
<rect x="400" y="400" width="100" height="100" fill="white"/>
<rect x="400" y="500" width="100" height="100" fill="white"/>
<rect x="400" y="600" width="100" height="100" fill="white"/>
<rect x="400" y="700" width="100" height="100" fill="white"/>
<rect x="500" y="500" width="100" height="100" fill="white"/>
<rect x="600" y="400" width="100" height="100" fill="white"/>
<rect x="700" y="500" width="100" height="100" fill="white"/>
<rect x="700" y="600" width="100" height="100" fill="white"/>
<rect x="700" y="700" width="100" height="100" fill="white"/>
</g>
<defs>
<clipPath id="clip0_0_1">
<rect width="1000" height="1000" fill="white"/>
</clipPath>
</defs>
</svg>
